<?xml version="1.0" encoding="utf-8"?>
<!-- Generator: Adobe Illustrator 26.0.1, SVG Export Plug-In . SVG Version: 6.00 Build 0)  -->
<svg version="1.1" id="Layer_1" xmlns="http://www.w3.org/2000/svg" xmlns:xlink="http://www.w3.org/1999/xlink" x="0px" y="0px"
	 viewBox="0 0 320 450" style="enable-background:new 0 0 320 450;" xml:space="preserve">
<style type="text/css">
	.st0{fill:#AD7CB5;}
</style>
<path class="st0" d="M312.81,240.53c-21.78-27.71-36.8-50.08-31.7-85.71c0.07-0.49,0.1-0.98,0.09-1.47
	c-2.09-93.5-91.77-114.18-92.87-114.42c-14.32-2.79-28.3-4.2-41.56-4.2c-91.3,0-125.28,64.76-126.82,67.79
	c-40.21,86.48,14.74,163.26,17.09,166.49c0.16,0.22,0.33,0.43,0.5,0.62c25.96,29.53,26.66,55.42,26.66,55.76l1.26,72.41
	c0.04,2.38,1.03,4.64,2.74,6.29c1.67,1.61,3.9,2.51,6.21,2.51c0.06,0,0.12,0,0.18,0l120.95-2.4c4.95-0.1,8.88-4.19,8.78-9.13
	l-1.04-52.22c29.31,13.65,62.66,6.48,63.39,6.32c4.23-0.87,7.24-4.63,7.15-8.95l-1.54-77.7l35.38-7.7c3.02-0.66,5.48-2.82,6.52-5.72
	C315.24,246.19,314.72,242.95,312.81,240.53z M56.32,116.67l-6.85,0.13c-0.66,0.01-1.21-0.51-1.22-1.17l-0.14-7.39
	c-0.02-0.66,0.5-1.2,1.18-1.22l6.82-0.13c0.34-1.16,0.8-2.29,1.38-3.36l-4.62-4.43c-0.23-0.22-0.37-0.52-0.37-0.84
	c-0.01-0.31,0.12-0.62,0.34-0.86l5.12-5.33c0.22-0.22,0.52-0.36,0.85-0.37c0.31-0.01,0.62,0.12,0.84,0.34l4.77,4.58
	c0.85-0.45,1.75-0.83,2.67-1.14l-0.13-6.4c-0.01-0.66,0.51-1.21,1.18-1.22l7.38-0.15c0.66-0.01,1.2,0.51,1.22,1.17l0.13,6.4
	c1.06,0.3,2.08,0.71,3.04,1.19l4.74-4.94c0.22-0.22,0.52-0.36,0.84-0.37c0.31-0.01,0.62,0.12,0.85,0.34l5.33,5.12
	c0.22,0.22,0.36,0.52,0.36,0.84c0.01,0.31-0.1,0.63-0.33,0.86l-4.75,4.94c0.52,0.95,0.97,1.95,1.29,2.98l6.85-0.14
	c0.66-0.01,1.21,0.51,1.22,1.17l0.15,7.39c0.01,0.66-0.51,1.21-1.18,1.22l-6.85,0.13c-0.28,0.98-0.63,1.92-1.07,2.81l4.83,4.64
	c0.22,0.22,0.36,0.52,0.36,0.83c0.01,0.32-0.12,0.63-0.33,0.86l-5.12,5.32c-0.45,0.48-1.21,0.5-1.69,0.03l-4.72-4.55
	c-1.03,0.6-2.09,1.08-3.21,1.44l0.13,6.31c0.01,0.66-0.5,1.2-1.17,1.22l-7.4,0.15c-0.65,0.01-1.2-0.51-1.21-1.17l-0.13-6.31
	c-1.1-0.3-2.16-0.73-3.17-1.25l-4.48,4.67c-0.44,0.47-1.24,0.48-1.69,0.04l-5.33-5.11c-0.48-0.45-0.49-1.21-0.03-1.7l4.54-4.73
	C57.06,118.62,56.65,117.66,56.32,116.67z M79.43,157.69l14.32-0.28c0.7-2.44,1.64-4.79,2.86-7.03l-9.68-9.29
	c-0.48-0.45-0.76-1.09-0.77-1.76c-0.01-0.66,0.24-1.32,0.7-1.8l10.74-11.16c0.45-0.48,1.1-0.76,1.76-0.78
	c0.66-0.01,1.31,0.24,1.77,0.71l9.98,9.6c1.8-0.94,3.66-1.74,5.61-2.37l-0.27-13.42c-0.02-1.39,1.08-2.53,2.46-2.56l15.48-0.3
	c1.39-0.03,2.53,1.07,2.55,2.46l0.27,13.42c2.23,0.62,4.35,1.46,6.37,2.48l9.94-10.35c0.45-0.48,1.1-0.76,1.76-0.78
	c0.66-0.01,1.29,0.24,1.78,0.71l11.17,10.73c0.48,0.46,0.76,1.1,0.77,1.77c0.01,0.66-0.24,1.3-0.7,1.78l-9.94,10.35
	c1.1,1.98,2.01,4.07,2.72,6.24l14.34-0.29c1.39-0.02,2.53,1.07,2.55,2.46l0.31,15.48c0.02,1.39-1.07,2.53-2.46,2.55l-14.34,0.28
	c-0.59,2.05-1.34,4.02-2.25,5.89l10.11,9.72c0.48,0.47,0.75,1.1,0.77,1.77c0.01,0.66-0.24,1.3-0.7,1.78l-10.72,11.15
	c-0.96,1.01-2.55,1.04-3.55,0.07l-9.9-9.51c-2.15,1.25-4.39,2.25-6.71,3l0.26,13.22c0.02,1.39-1.06,2.54-2.45,2.56l-15.49,0.31
	c-1.38,0.03-2.53-1.07-2.55-2.46l-0.27-13.22c-2.29-0.64-4.5-1.52-6.63-2.62l-9.4,9.77c-0.92,0.97-2.59,1-3.55,0.07l-11.16-10.71
	c-0.99-0.96-1.01-2.55-0.07-3.55l9.52-9.92c-1.05-1.89-1.9-3.9-2.6-5.98l-14.34,0.29c-1.4,0.02-2.54-1.07-2.57-2.46l-0.3-15.48
	C76.93,158.86,78.03,157.72,79.43,157.69z M153.44,92.85l9.4-0.19c0.47-1.6,1.1-3.14,1.89-4.62l-6.36-6.09
	c-0.31-0.3-0.5-0.72-0.51-1.15c-0.01-0.44,0.16-0.86,0.47-1.18l7.05-7.33c0.3-0.32,0.72-0.5,1.17-0.51
	c0.43-0.01,0.85,0.15,1.17,0.46l6.56,6.3c1.18-0.62,2.4-1.15,3.69-1.56l-0.17-8.82c-0.02-0.91,0.71-1.66,1.62-1.68l10.17-0.2
	c0.9-0.02,1.66,0.71,1.67,1.62l0.17,8.81c1.47,0.41,2.86,0.96,4.2,1.63l6.52-6.79c0.29-0.33,0.71-0.5,1.15-0.51
	c0.43-0.01,0.85,0.15,1.18,0.46l7.34,7.05c0.31,0.31,0.5,0.72,0.5,1.16c0.01,0.44-0.15,0.86-0.45,1.18l-6.53,6.79
	c0.71,1.31,1.32,2.68,1.78,4.1l9.42-0.19c0.91-0.02,1.66,0.71,1.68,1.62l0.2,10.17c0.02,0.91-0.7,1.66-1.62,1.68l-9.41,0.19
	c-0.38,1.34-0.87,2.64-1.47,3.87l6.64,6.39c0.31,0.3,0.49,0.72,0.5,1.15c0.01,0.44-0.15,0.86-0.45,1.18l-7.05,7.33
	c-0.63,0.66-1.67,0.68-2.32,0.05l-6.52-6.25c-1.4,0.81-2.88,1.47-4.4,1.97l0.16,8.68c0.02,0.91-0.7,1.67-1.61,1.69l-10.17,0.2
	c-0.9,0.02-1.67-0.71-1.68-1.62l-0.17-8.68c-1.5-0.41-2.96-1-4.35-1.72l-6.18,6.43c-0.61,0.64-1.69,0.66-2.32,0.05l-7.34-7.05
	c-0.65-0.63-0.68-1.67-0.05-2.33l6.25-6.51c-0.69-1.25-1.25-2.57-1.71-3.93l-9.41,0.19c-0.92,0.02-1.67-0.71-1.69-1.62l-0.2-10.17
	C151.8,93.62,152.52,92.87,153.44,92.85z M175,99.15c-0.12-5.58,4.33-10.21,9.91-10.32c5.58-0.11,10.21,4.34,10.32,9.91
	c0.1,5.59-4.34,10.21-9.91,10.32C179.73,109.17,175.1,104.73,175,99.15z M112.24,167.28c-0.17-8.49,6.6-15.54,15.09-15.71
	c8.49-0.17,15.54,6.6,15.7,15.09c0.17,8.49-6.6,15.53-15.08,15.69C119.45,182.53,112.4,175.77,112.24,167.28z M64.94,111.6
	c-0.08-4.05,3.16-7.41,7.21-7.49c4.05-0.08,7.41,3.15,7.49,7.2c0.08,4.05-3.15,7.41-7.2,7.49C68.39,118.88,65.02,115.66,64.94,111.6
	z"/>
</svg>
