<?xml version="1.0" encoding="utf-8"?>
<!-- Generator: Adobe Illustrator 26.0.1, SVG Export Plug-In . SVG Version: 6.00 Build 0)  -->
<svg version="1.1" id="Layer_1" xmlns="http://www.w3.org/2000/svg" xmlns:xlink="http://www.w3.org/1999/xlink" x="0px" y="0px"
	 viewBox="0 0 36 45" style="enable-background:new 0 0 36 45;" xml:space="preserve">
<style type="text/css">
	.st0{fill:#C778DD;}
</style>
<g>
	<path class="st0" d="M6.93,12.85C7.02,12.95,7.15,13,7.28,13s0.26-0.05,0.35-0.15c0.2-0.2,0.2-0.51,0-0.71l-3-3
		c-0.04-0.04-0.1-0.08-0.16-0.1c-0.12-0.05-0.26-0.05-0.38,0C4.03,9.06,3.97,9.1,3.93,9.15l-3,3c-0.2,0.2-0.2,0.51,0,0.71
		s0.51,0.2,0.71,0l2.14-2.15V34.5c0,0.28,0.22,0.5,0.5,0.5h21c0.28,0,0.5-0.22,0.5-0.5s-0.22-0.5-0.5-0.5H4.78V10.71L6.93,12.85z"/>
	<path class="st0" d="M34.93,31.15l-2.15,2.15V9.5c0-0.28-0.22-0.5-0.5-0.5h-21c-0.28,0-0.5,0.22-0.5,0.5S11,10,11.28,10h20.5v23.29
		l-2.15-2.15c-0.2-0.2-0.51-0.2-0.71,0s-0.2,0.51,0,0.71l3,3c0.05,0.05,0.1,0.08,0.16,0.11c0.07,0.03,0.14,0.04,0.2,0.04
		s0.13-0.01,0.19-0.04l0,0l0,0c0.06-0.02,0.11-0.06,0.16-0.1l3-3c0.2-0.2,0.2-0.51,0-0.71S35.12,30.95,34.93,31.15z"/>
	<path class="st0" d="M20.28,13h-4c-0.28,0-0.5,0.22-0.5,0.5v2.46l-1.74-1.74c-0.09-0.09-0.22-0.15-0.35-0.15s-0.26,0.05-0.35,0.15
		l-2.83,2.83c-0.09,0.09-0.15,0.22-0.15,0.35c0,0.13,0.05,0.26,0.15,0.35l1.74,1.74H9.78C9.5,19.5,9.28,19.72,9.28,20v4
		c0,0.28,0.22,0.5,0.5,0.5h2.46l-1.74,1.74c-0.09,0.09-0.15,0.22-0.15,0.35s0.05,0.26,0.15,0.35l2.83,2.83
		c0.19,0.19,0.52,0.19,0.71,0l1.74-1.74v2.46c0,0.28,0.22,0.5,0.5,0.5h4c0.28,0,0.5-0.22,0.5-0.5v-2.46l1.74,1.74
		c0.09,0.09,0.22,0.15,0.35,0.15s0.26-0.05,0.35-0.15l2.83-2.83c0.09-0.09,0.15-0.22,0.15-0.35s-0.05-0.26-0.15-0.35l-1.74-1.74
		h2.46c0.28,0,0.5-0.22,0.5-0.5v-4c0-0.28-0.22-0.5-0.5-0.5h-2.46l1.74-1.74c0.09-0.09,0.15-0.22,0.15-0.35s-0.05-0.26-0.15-0.35
		l-2.83-2.83c-0.19-0.19-0.52-0.19-0.71,0l-1.74,1.74V13.5C20.78,13.22,20.56,13,20.28,13z M22.88,15.28L25,17.4l-2.24,2.24
		c-0.14,0.14-0.19,0.36-0.11,0.54c0.08,0.19,0.26,0.31,0.46,0.31h3.17v3h-3.17c-0.2,0-0.38,0.12-0.46,0.31
		c-0.08,0.19-0.03,0.4,0.11,0.54L25,26.58l-2.12,2.12l-2.24-2.24c-0.14-0.14-0.36-0.18-0.54-0.11c-0.19,0.08-0.31,0.26-0.31,0.46V30
		h-3v-3.17c0-0.2-0.12-0.38-0.31-0.46c-0.19-0.08-0.4-0.03-0.54,0.11l-2.24,2.24l-2.12-2.12l2.24-2.24
		c0.14-0.14,0.19-0.36,0.11-0.54c-0.08-0.19-0.26-0.31-0.46-0.31h-3.19v-3h3.17c0.2,0,0.38-0.12,0.46-0.31
		c0.08-0.19,0.03-0.4-0.11-0.54l-2.24-2.24l2.12-2.12l2.24,2.24c0.14,0.14,0.36,0.19,0.54,0.11c0.19-0.08,0.31-0.26,0.31-0.46V14h3
		v3.17c0,0.2,0.12,0.38,0.31,0.46c0.19,0.08,0.4,0.04,0.54-0.11L22.88,15.28z"/>
	<path class="st0" d="M14.78,22c0,1.93,1.57,3.5,3.5,3.5s3.5-1.57,3.5-3.5s-1.57-3.5-3.5-3.5S14.78,20.07,14.78,22z M20.78,22
		c0,1.38-1.12,2.5-2.5,2.5s-2.5-1.12-2.5-2.5s1.12-2.5,2.5-2.5S20.78,20.62,20.78,22z"/>
</g>
</svg>
