<?xml version="1.0" encoding="utf-8"?>
<!-- Generator: Adobe Illustrator 26.0.1, SVG Export Plug-In . SVG Version: 6.00 Build 0)  -->
<svg version="1.1" id="Layer_1" xmlns="http://www.w3.org/2000/svg" xmlns:xlink="http://www.w3.org/1999/xlink" x="0px" y="0px"
	 viewBox="0 0 64 80" style="enable-background:new 0 0 64 80;" xml:space="preserve">
<style type="text/css">
	.st0{fill:#C779DD;}
</style>
<g>
	<path class="st0" d="M48,43V16c0-2.76-2.24-5-5-5H12c-2.8,0-5,1.54-5,3.5V16c-1.65,0-3,1.35-3,3s1.35,3,3,3v3c-1.65,0-3,1.35-3,3
		s1.35,3,3,3v3c-1.65,0-3,1.35-3,3s1.35,3,3,3v3c-1.65,0-3,1.35-3,3s1.35,3,3,3v3c-1.65,0-3,1.35-3,3s1.35,3,3,3v1.5
		c0,1.96,2.2,3.5,5,3.5h27.08c2.2,2.45,5.38,4,8.92,4c6.62,0,12-5.38,12-12S54.62,43,48,43z M6,19c0-0.55,0.45-1,1-1h3
		c0.55,0,1,0.45,1,1c0,0.55-0.45,1-1,1H7C6.45,20,6,19.55,6,19z M6,28c0-0.55,0.45-1,1-1h3c0.55,0,1,0.45,1,1c0,0.55-0.45,1-1,1H8
		c0,0,0,0,0,0l0,0H7C6.45,29,6,28.55,6,28z M6,37c0-0.55,0.45-1,1-1h3c0.55,0,1,0.45,1,1c0,0.55-0.45,1-1,1H8.01c0,0,0,0-0.01,0
		s0,0,0,0H7C6.45,38,6,37.56,6,37z M6,46c0-0.55,0.45-1,1-1h3c0.55,0,1,0.45,1,1c0,0.55-0.45,1-1,1H8.01c0,0,0,0-0.01,0
		c0,0,0,0-0.01,0H7C6.45,47,6,46.56,6,46z M6,55c0-0.55,0.45-1,1-1h3c0.55,0,1,0.45,1,1c0,0.55-0.45,1-1,1H8.01c0,0-0.01,0-0.01,0
		S8,56,7.99,56H7C6.45,56,6,55.56,6,55z M9,59.5V58h1c1.65,0,3-1.35,3-3s-1.35-3-3-3H9v-3h1c1.65,0,3-1.35,3-3s-1.35-3-3-3H9v-3h1
		c1.65,0,3-1.35,3-3s-1.35-3-3-3H9v-3h1c1.65,0,3-1.35,3-3s-1.35-3-3-3H9v-3h1c1.65,0,3-1.35,3-3s-1.35-3-3-3H9v-1.5
		c0-0.69,1.31-1.5,3-1.5h4v48h-4C10.31,61,9,60.2,9,59.5z M18,61V13h25c1.65,0,3,1.35,3,3v27.18C40.33,44.14,36,49.07,36,55
		c0,2.19,0.6,4.23,1.62,6H18z M48,65c-5.51,0-10-4.49-10-10c0-5.51,4.49-10,10-10s10,4.49,10,10C58,60.52,53.51,65,48,65z
		 M39.95,32.05C39.95,32.05,39.95,32.05,39.95,32.05C39.96,32.05,39.96,32.05,39.95,32.05c0.01-0.01,0.01-0.01,0.01-0.01
		C41.28,30.33,42,28.19,42,26c0-5.51-4.49-10-10-10s-10,4.49-10,10c0,2.19,0.73,4.34,2.04,6.04C25.94,34.56,28.85,36,32,36
		c0.4,0,0.78-0.02,1.17-0.07C35.87,35.62,38.29,34.25,39.95,32.05z M32,18c4.41,0,8,3.59,8,8c0,1.25-0.31,2.46-0.85,3.56
		c-1.05-1.39-2.47-2.43-4.09-3.01C35.64,25.86,36,24.98,36,24c0-2.2-1.79-4-4-4c-2.21,0-4,1.8-4,4c0,0.97,0.36,1.85,0.94,2.55
		c-1.62,0.58-3.04,1.62-4.09,3.01C24.31,28.47,24,27.25,24,26C24,21.59,27.59,18,32,18z M32,26c-1.1,0-2-0.9-2-2c0-1.1,0.9-2,2-2
		c1.1,0,2,0.9,2,2C34,25.11,33.1,26,32,26z M31.1,33.95c-0.1-0.01-0.19-0.03-0.29-0.05c-0.2-0.03-0.4-0.06-0.59-0.1
		c-0.11-0.02-0.22-0.06-0.33-0.09c-0.17-0.05-0.35-0.09-0.52-0.15c-0.11-0.04-0.22-0.08-0.33-0.13c-0.16-0.06-0.33-0.13-0.49-0.21
		c-0.1-0.05-0.21-0.1-0.31-0.16c-0.16-0.08-0.31-0.17-0.46-0.26c-0.1-0.06-0.19-0.13-0.29-0.19c-0.15-0.1-0.29-0.21-0.43-0.32
		c-0.09-0.07-0.18-0.15-0.27-0.22c-0.14-0.12-0.27-0.24-0.4-0.37c-0.08-0.08-0.17-0.16-0.25-0.25c-0.04-0.04-0.07-0.09-0.11-0.13
		C27.31,29.26,29.54,28,32,28s4.69,1.26,5.95,3.32c-0.04,0.04-0.07,0.08-0.11,0.12c-0.09,0.09-0.18,0.18-0.27,0.27
		c-0.12,0.12-0.24,0.24-0.37,0.35c-0.1,0.08-0.19,0.16-0.3,0.24c-0.13,0.1-0.26,0.2-0.4,0.3c-0.1,0.07-0.21,0.14-0.32,0.21
		c-0.14,0.09-0.29,0.17-0.43,0.25c-0.11,0.06-0.22,0.12-0.33,0.17c-0.15,0.07-0.31,0.14-0.47,0.2c-0.12,0.04-0.23,0.09-0.34,0.13
		c-0.17,0.06-0.34,0.1-0.51,0.15c-0.11,0.03-0.22,0.06-0.34,0.09c-0.19,0.04-0.39,0.07-0.59,0.1c-0.1,0.01-0.19,0.03-0.29,0.05
		C32.6,33.98,32.3,34,32,34C31.7,34,31.4,33.98,31.1,33.95z M48,47c-1.65,0-3,1.35-3,3s1.35,3,3,3s3-1.35,3-3S49.65,47,48,47z
		 M48,51c-0.55,0-1-0.45-1-1c0-0.55,0.45-1,1-1c0.55,0,1,0.45,1,1C49,50.55,48.55,51,48,51z M51,61c0,0.55-0.45,1-1,1h-2
		c-0.55,0-1-0.45-1-1v-5h-1c-0.55,0-1-0.45-1-1c0-0.55,0.45-1,1-1h2c0.55,0,1,0.45,1,1v5h1C50.55,60,51,60.45,51,61z"/>
</g>
</svg>
