<?xml version="1.0" encoding="utf-8"?>
<!-- Generator: Adobe Illustrator 26.0.1, SVG Export Plug-In . SVG Version: 6.00 Build 0)  -->
<svg version="1.1" id="Layer_1" xmlns="http://www.w3.org/2000/svg" xmlns:xlink="http://www.w3.org/1999/xlink" x="0px" y="0px"
	 viewBox="0 0 320 450" style="enable-background:new 0 0 320 450;" xml:space="preserve">
<style type="text/css">
	.st0{fill:#AC7CB5;}
</style>
<g>
	<g>
		<g>
			<path class="st0" d="M202.5,357.28c-3.22,0-6.43-0.55-9.5-1.66c-24.93-8.99-49.57-22.33-73.23-39.61
				c-14.3-10.45-28.06-22.27-40.93-35.13c-12.37-12.37-23.78-25.58-33.92-39.27c-17.25-23.29-30.66-47.6-39.88-72.24
				c-3.83-10.22-1.29-21.84,6.43-29.56l33.72-33.72c10.9-10.9,28.66-10.9,39.55,0l32.36,32.36c10.9,10.9,10.9,28.66,0,39.55
				l-10.16,10.16c9.14,11.96,19.27,23.54,30.15,34.41c11.43,11.43,23.64,22.04,36.26,31.54l9.93-9.93c10.92-10.9,28.66-10.9,39.55,0
				l32.36,32.36c10.9,10.9,10.9,28.66,0,39.55l-32.92,32.98c-3.77,3.77-8.5,6.37-13.68,7.52
				C206.59,357.06,204.54,357.28,202.5,357.28z M65.01,106.51c-4.96,0-9.91,1.88-13.7,5.67l-33.72,33.7
				c-5.35,5.35-7.11,13.38-4.47,20.46c8.93,23.9,21.96,47.5,38.73,70.14c9.89,13.36,21.02,26.24,33.08,38.3
				c12.56,12.56,25.97,24.07,39.92,34.27c23,16.82,46.91,29.76,71.08,38.47c7.03,2.54,14.99,0.76,20.28-4.53l32.96-32.96
				c7.56-7.56,7.56-19.85,0-27.39l-32.36-32.36c-7.56-7.56-19.85-7.56-27.39,0l-10.16,10.14c-2.89,2.89-7.52,3.22-10.77,0.76
				c-13.03-9.79-25.62-20.73-37.42-32.53c-11.25-11.25-21.71-23.19-31.11-35.54c-2.48-3.26-2.17-7.93,0.74-10.84l10.36-10.34
				c7.56-7.56,7.56-19.85,0-27.39l-32.36-32.36C74.93,108.39,69.97,106.51,65.01,106.51z"/>
		</g>
	</g>
	<g>
		<g>
			<path class="st0" d="M312.41,203.68H161.59c-2.38,0-4.3-1.93-4.3-4.3V98.21c0-2.38,1.93-4.3,4.3-4.3h150.82
				c2.38,0,4.3,1.93,4.3,4.3v101.17C316.71,201.75,314.79,203.68,312.41,203.68z M165.89,195.08h142.22v-92.56H165.89V195.08z"/>
		</g>
		<g>
			<path class="st0" d="M237.03,171.99h-0.06c-1.09,0-2.13-0.41-2.91-1.15l-75.38-69.46c-1.74-1.62-1.86-4.32-0.25-6.08
				c1.62-1.74,4.32-1.86,6.08-0.25l72.49,66.8l72.49-66.8c1.74-1.62,4.47-1.5,6.08,0.25c1.62,1.74,1.5,4.47-0.25,6.08l-75.38,69.46
				C239.14,171.58,238.1,171.99,237.03,171.99z"/>
		</g>
		<g>
			<path class="st0" d="M312.41,203.68c-0.88,0-1.78-0.27-2.54-0.84l-61.06-44.9c-1.9-1.41-2.31-4.1-0.92-6.02
				c1.41-1.9,4.1-2.31,6.02-0.92l61.06,44.9c1.9,1.41,2.31,4.1,0.92,6.02C315.03,203.06,313.72,203.68,312.41,203.68z"/>
		</g>
		<g>
			<path class="st0" d="M161.59,203.68c-1.33,0-2.62-0.61-3.46-1.76c-1.41-1.9-1-4.61,0.92-6.02l61.06-44.9
				c1.9-1.41,4.61-1,6.02,0.92c1.41,1.9,1,4.61-0.92,6.02l-61.06,44.9C163.37,203.39,162.47,203.68,161.59,203.68z"/>
		</g>
	</g>
</g>
</svg>
