<?xml version="1.0" encoding="utf-8"?>
<!-- Generator: Adobe Illustrator 26.0.1, SVG Export Plug-In . SVG Version: 6.00 Build 0)  -->
<svg version="1.1" id="Layer_1" xmlns="http://www.w3.org/2000/svg" xmlns:xlink="http://www.w3.org/1999/xlink" x="0px" y="0px"
	 viewBox="0 0 301 338.75" style="enable-background:new 0 0 301 338.75;" xml:space="preserve">
<style type="text/css">
	.st0{fill:#C778DD;}
</style>
<g>
	<path class="st0" d="M140,29c6-5,15-5,21,0l136,136c13,14-7,34-21,21l-5-6v116H30V180l-5,6c-14,13-34-7-21-21L140,29z M206,243h-24
		v-23h24V243z M155,243h24v-23h-24V243z M206,193h-24v24h24V193z M155,193h24v24h-24V193z M228,57h41v67l-41-41V57z M85,188h49v86
		h115V158l-98-98l-99,98v116h33V188z"/>
</g>
</svg>
