<svg xmlns="http://www.w3.org/2000/svg" viewBox="0 0 126.55 142.44"><defs><style>.cls-1{fill:#1d1d1b;}.cls-2{fill:#010101;}</style></defs><g id="Layer_2" data-name="Layer 2"><g id="Layer_1-2" data-name="Layer 1"><path class="cls-1" d="M110.73,55.29a55.37,55.37,0,1,0-87,45.31v41.84h63v-24h24V86.87L126.55,79ZM107.09,80l-4.36,2.18v28.24h-24v24h-47V96.7l-3.38-2.36a47.34,47.34,0,1,1,74.38-38.83V57.9l1.32,2,10.82,16.25Z"/><path class="cls-2" d="M89.91,45.54,81.73,47a27.3,27.3,0,0,0-5.59-9.71l5.33-6.35-6-5.07-5.31,6.33a27.13,27.13,0,0,0-10.55-3.81V20.08h-7.9v8.29a27.19,27.19,0,0,0-10.55,3.81L35.8,25.85l-6,5.07,5.32,6.35A27.41,27.41,0,0,0,29.49,47l-8.18-1.45-1.37,7.78,8.13,1.43c0,.29-.09.56-.09.85a27.58,27.58,0,0,0,2,10.23l-7.12,4.11,3.95,6.84L34,72.63a27.69,27.69,0,0,0,8.58,7.2l-2.84,7.8,7.42,2.7L50,82.64a27.48,27.48,0,0,0,11.28,0l2.8,7.69,7.42-2.7-2.84-7.8a27.72,27.72,0,0,0,8.59-7.2l7.18,4.15,3.95-6.84-7.12-4.11a27.38,27.38,0,0,0,2-10.23c0-.29-.08-.56-.09-.85l8.13-1.43ZM55.61,75.33A19.74,19.74,0,1,1,75.35,55.6,19.73,19.73,0,0,1,55.61,75.33Z"/></g></g></svg>