<svg xmlns="http://www.w3.org/2000/svg" viewBox="0 0 179 154.47"><defs><style>.cls-1{fill:#1d1d1b;}</style></defs><g id="Layer_2" data-name="Layer 2"><g id="Layer_1-2" data-name="Layer 1"><path class="cls-1" d="M113.23,154.47a17.23,17.23,0,0,1-6-1.07,165.06,165.06,0,0,1-41.39-22.83,199.57,199.57,0,0,1-23.09-20.22A201.5,201.5,0,0,1,23.63,87.76,171.59,171.59,0,0,1,1.11,46.13a18.16,18.16,0,0,1,4-18.92L24,8A17.42,17.42,0,0,1,48.91,8L67,26.44a18.17,18.17,0,0,1,0,25.32l-4.47,4.56a193.65,193.65,0,0,0,15.63,18A192.55,192.55,0,0,0,96.77,91l4.3-4.39a17.43,17.43,0,0,1,24.94,0l18.07,18.43a18.18,18.18,0,0,1,0,25.33L125.7,149.19a17.51,17.51,0,0,1-8.63,4.83A16,16,0,0,1,113.23,154.47ZM36.47,11.64a8.67,8.67,0,0,0-6.22,2.63L11.42,33.47A9.2,9.2,0,0,0,9.37,43,162.79,162.79,0,0,0,30.74,82.49,191.14,191.14,0,0,0,49,104.08a190.18,190.18,0,0,0,22,19.31A155.67,155.67,0,0,0,110.25,145a8.55,8.55,0,0,0,3,.53,8.82,8.82,0,0,0,6.25-2.63l18.4-18.77a9.17,9.17,0,0,0,0-12.8L119.79,92.93a8.67,8.67,0,0,0-12.43,0l-5.68,5.78a6.54,6.54,0,0,1-8.66.62,201.6,201.6,0,0,1-21.1-18.71A201.19,201.19,0,0,1,54.38,60.16,6.8,6.8,0,0,1,55,51.39l5.78-5.89a9.18,9.18,0,0,0,0-12.79L42.68,14.27A8.63,8.63,0,0,0,36.47,11.64Z"/><path class="cls-1" d="M113.23,152.47a15.31,15.31,0,0,1-5.3-.95A163.15,163.15,0,0,1,67,129a196.74,196.74,0,0,1-22.85-20A198.34,198.34,0,0,1,25.25,86.59,170.3,170.3,0,0,1,3,45.45,16.22,16.22,0,0,1,6.57,28.61L25.4,9.4a15.43,15.43,0,0,1,22.08,0L65.55,27.84a16.16,16.16,0,0,1,0,22.52l-5.67,5.79A195.28,195.28,0,0,0,76.71,75.74,193,193,0,0,0,97,93.71l5.54-5.66a15.41,15.41,0,0,1,22.08,0l18.07,18.43a16.18,16.18,0,0,1,0,22.53l-18.38,18.78a15.4,15.4,0,0,1-7.64,4.28A14.43,14.43,0,0,1,113.23,152.47ZM36.47,9.64a10.65,10.65,0,0,0-7.65,3.23L10,32.07A11.19,11.19,0,0,0,7.5,43.72a164.85,164.85,0,0,0,21.62,40,194.51,194.51,0,0,0,18.47,21.81A192.54,192.54,0,0,0,69.88,125a157.83,157.83,0,0,0,39.68,21.91,10.74,10.74,0,0,0,11.33-2.58l18.4-18.77a11.19,11.19,0,0,0,0-15.6L121.22,91.53a10.66,10.66,0,0,0-15.29,0l-5.67,5.77a4.53,4.53,0,0,1-6,.43A198.31,198.31,0,0,1,73.35,79.21,200.25,200.25,0,0,1,56,59a4.82,4.82,0,0,1,.41-6.18l5.79-5.89a11.19,11.19,0,0,0,0-15.6L44.11,12.87A10.61,10.61,0,0,0,36.47,9.64Z"/><path class="cls-1" d="M89.9,67a4.44,4.44,0,0,1-4.4-4.47V4.47A4.44,4.44,0,0,1,89.9,0h84.2a4.43,4.43,0,0,1,4.4,4.47V62.53A4.43,4.43,0,0,1,174.1,67Zm79.6-9V9h-75V58Z"/><path class="cls-1" d="M174.1,65H89.9a2.44,2.44,0,0,1-2.4-2.47V4.47A2.44,2.44,0,0,1,89.9,2h84.2a2.44,2.44,0,0,1,2.4,2.47V62.53A2.44,2.44,0,0,1,174.1,65ZM92.5,60h79V7h-79Z"/><path class="cls-1" d="M132.48,49a4.29,4.29,0,0,1-3-1.22L87.4,8.24A4.46,4.46,0,0,1,87.14,2a4.36,4.36,0,0,1,6.25-.27l39.1,36.76L171.6,1.72a4.36,4.36,0,0,1,3-1.19A4.42,4.42,0,0,1,177.85,2a4.48,4.48,0,0,1-.26,6.26L135.51,47.8a4.38,4.38,0,0,1-3,1.2Z"/><path class="cls-1" d="M132.51,47h0a2.35,2.35,0,0,1-1.63-.65L88.77,6.79a2.49,2.49,0,0,1-.14-3.47A2.37,2.37,0,0,1,92,3.18l40.47,38L173,3.18a2.37,2.37,0,0,1,3.39.14,2.48,2.48,0,0,1-.14,3.47L134.14,46.35A2.39,2.39,0,0,1,132.51,47Z"/><path class="cls-1" d="M174.6,67A4.4,4.4,0,0,1,172,66.1L137.89,40.54a4.53,4.53,0,0,1-.95-6.19,4.44,4.44,0,0,1,3.58-1.84,4.36,4.36,0,0,1,2.6.86L177.23,59a4.54,4.54,0,0,1,.94,6.19A4.46,4.46,0,0,1,174.6,67Z"/><path class="cls-1" d="M174.6,65a2.36,2.36,0,0,1-1.42-.48L139.09,38.94a2.51,2.51,0,0,1-.52-3.43,2.4,2.4,0,0,1,3.37-.53L176,60.55a2.5,2.5,0,0,1,.51,3.43A2.43,2.43,0,0,1,174.6,65Z"/><path class="cls-1" d="M90.39,67a4.41,4.41,0,0,1-3.56-1.84,4.5,4.5,0,0,1,.94-6.2l34.09-25.57a4.34,4.34,0,0,1,2.62-.87,4.41,4.41,0,0,1,3.57,1.83,4.5,4.5,0,0,1-.94,6.2L93,66.11A4.49,4.49,0,0,1,90.39,67Z"/><path class="cls-1" d="M90.39,65a2.36,2.36,0,0,1-1.93-1A2.49,2.49,0,0,1,89,60.55L123.06,35a2.38,2.38,0,0,1,3.37.53,2.5,2.5,0,0,1-.52,3.43L91.82,64.51A2.5,2.5,0,0,1,90.39,65Z"/></g></g></svg>