<svg xmlns="http://www.w3.org/2000/svg" viewBox="0 0 43.45 46.41"><defs><style>.cls-1{fill:#abb2bf;}</style></defs><g id="Layer_2" data-name="Layer 2"><g id="Layer_1-2" data-name="Layer 1"><path class="cls-1" d="M43.45,17.06A13,13,0,0,0,40.58,9,13.06,13.06,0,0,0,40,1.16a1.74,1.74,0,0,0-1.09-1c-.7-.24-3.35-.69-8.75,2.81a26.35,26.35,0,0,0-7.12-.86A26.33,26.33,0,0,0,15.93,3C10.39-.61,7.51,0,6.93.14a1.73,1.73,0,0,0-1.09,1A12.93,12.93,0,0,0,5.26,9,12.18,12.18,0,0,0,2.4,17.1c0,11.06,6.33,14.4,12.13,15.58A9,9,0,0,0,13.92,35a1,1,0,0,0,0,.25v3.06c-5.28.44-6.41-2.65-6.52-3L7.31,35a8.86,8.86,0,0,0-5-4.45A1.75,1.75,0,1,0,1.2,33.89,5.3,5.3,0,0,1,4,36.32c.7,2.27,3.56,5.86,9.86,5.46v2.88a1.75,1.75,0,1,0,3.5,0V35.33a4.94,4.94,0,0,1,1.27-2.73,1.75,1.75,0,0,0,.08-2.46,1.8,1.8,0,0,0-1.08-.54C11.57,28.89,5.93,26.88,5.93,17a8.55,8.55,0,0,1,2.56-6.42,1.89,1.89,0,0,0,.4-1.86,8.64,8.64,0,0,1-.11-5.3,15.36,15.36,0,0,1,5.91,2.77,1.78,1.78,0,0,0,1.54.21,21.49,21.49,0,0,1,6.86-.93,21.51,21.51,0,0,1,6.85.93,1.79,1.79,0,0,0,1.54-.21,15.69,15.69,0,0,1,5.66-2.75A8.88,8.88,0,0,1,37,8.82a1.72,1.72,0,0,0,.34,1.7A9.79,9.79,0,0,1,40,17c0,9.83-5.93,11.87-11.74,12.57a1.74,1.74,0,0,0-.84,3.13c.62.47,1.34,1.79,1.34,4v7.92a1.75,1.75,0,0,0,3.5,0V36.73a10.92,10.92,0,0,0-.75-4.07C36.19,31.66,43.45,28.57,43.45,17.06Z"/></g></g></svg>