<svg xmlns="http://www.w3.org/2000/svg" viewBox="0 0 185.77 139.01"><g id="Layer_2" data-name="Layer 2"><g id="Layer_1-2" data-name="Layer 1"><path d="M130,138.58a3.75,3.75,0,0,1-1.1-.16H20.51a3.75,3.75,0,0,1-1.1.16,3.68,3.68,0,0,1-2.61-1.09,4.38,4.38,0,0,1-1.2-3.09V15.71L7.89,23.44a4.58,4.58,0,0,1-6.52,0,4.56,4.56,0,0,1,0-6.52L16.89,1.41A3.88,3.88,0,0,1,18.49.32,4.65,4.65,0,0,1,20.18,0a4.57,4.57,0,0,1,1.69.32,4.44,4.44,0,0,1,1.55,1L39,16.88a4.56,4.56,0,0,1,0,6.48,4.46,4.46,0,0,1-3.27,1.4,4.4,4.4,0,0,1-3.25-1.39L24.6,15.63V129.42H129.51l.26.07a5.24,5.24,0,0,1,4.07,4.93A4,4,0,0,1,130,138.58Z"/><path d="M33.94,22a2.51,2.51,0,0,0,3.64,0,2.57,2.57,0,0,0,0-3.69L22,2.71a2.49,2.49,0,0,0-.83-.52,2.71,2.71,0,0,0-2,0,1.93,1.93,0,0,0-.83.58L2.78,18.35A2.61,2.61,0,0,0,6.47,22L17.6,10.87V134.41c0,1.46,1.13,2.6,2.58,2H129.24c1.45.59,2.6-.55,2.6-2a3.27,3.27,0,0,0-2.6-3H22.6V10.87Z"/><path d="M165.59,139a4.49,4.49,0,0,1-1.82-.37l-.11,0a5,5,0,0,1-1.35-.94l-15.58-15.58a4.61,4.61,0,1,1,6.51-6.52l7.36,7.63V9.42H56.37l-.16,0a4.94,4.94,0,0,1-4.27-4.81,4.08,4.08,0,0,1,4-4.25,4.19,4.19,0,0,1,.86.09H165.35a4.09,4.09,0,0,1,.85-.09,3.56,3.56,0,0,1,3,1.53,3.64,3.64,0,0,1,.43,3.06V123.53l8.34-7.93a4.46,4.46,0,0,1,3.21-1.36,4.62,4.62,0,0,1,3.25,7.88l-15.66,15.66-.08.07a4.7,4.7,0,0,1-1.31.8A4.27,4.27,0,0,1,165.59,139Z"/><path d="M179.35,117,167.6,128.18V4.58a1.56,1.56,0,0,0-2-2.16H56.53a2,2,0,0,0-2.59,2.16,3,3,0,0,0,2.59,2.84H162.6V128.13L151.83,117a2.61,2.61,0,0,0-3.69,3.68l15.58,15.58a2.86,2.86,0,0,0,.83.57,2.61,2.61,0,0,0,1,.21,2.21,2.21,0,0,0,1-.21h0a2.69,2.69,0,0,0,.83-.52L183,120.7a2.56,2.56,0,0,0,0-3.68A2.51,2.51,0,0,0,179.35,117Z"/><path d="M82.19,118.42a4.6,4.6,0,0,1-4.59-4.6v-8.07l-5.7,5.7a4.61,4.61,0,0,1-6.52,0L50.59,96.65a4.48,4.48,0,0,1-1.4-3.28,4.65,4.65,0,0,1,1.37-3.25l5.7-5.7H48.19a4.6,4.6,0,0,1-4.59-4.6V59.09a4.67,4.67,0,0,1,4.54-4.67h8.17l-5.67-5.67a4.48,4.48,0,0,1-1.4-3.28,4.67,4.67,0,0,1,1.37-3.25L65.39,27.43A4.44,4.44,0,0,1,68.66,26a4.63,4.63,0,0,1,3.25,1.37l5.69,5.69V25a4.6,4.6,0,0,1,4.59-4.6H103a4.53,4.53,0,0,1,3.31,1.39,4.45,4.45,0,0,1,1.25,3.3v8l5.7-5.7a4.6,4.6,0,0,1,6.51,0L134.6,42.21a4.48,4.48,0,0,1,1.4,3.28,4.63,4.63,0,0,1-1.37,3.24l-5.69,5.69H137a4.61,4.61,0,0,1,4.6,4.6v20.8a4.61,4.61,0,0,1-4.6,4.6h-8.08l5.67,5.67a4.48,4.48,0,0,1,1.4,3.28,4.65,4.65,0,0,1-1.37,3.25l-14.8,14.79a4.45,4.45,0,0,1-3.28,1.4,4.63,4.63,0,0,1-3.24-1.37l-5.7-5.7v8.08a4.61,4.61,0,0,1-4.6,4.6Zm16.41-9V95.13a4.65,4.65,0,0,1,2.83-4.29,4.55,4.55,0,0,1,1.75-.35,4.66,4.66,0,0,1,3.3,1.37l10.3,10.49,8.31-8.45L114.73,83.35A4.65,4.65,0,0,1,118,75.42H132.6v-12H117.3a4.49,4.49,0,0,1-4.16-2.88,4.65,4.65,0,0,1,1-4.95L124,45.23,116.14,37l-9.85,10.23a4.24,4.24,0,0,1-3.16,1.4h0a4.43,4.43,0,0,1-1.79-.38A4.62,4.62,0,0,1,98.6,44V29.42h-11V43.71A4.66,4.66,0,0,1,84.76,48a4.19,4.19,0,0,1-1.75.37A4.63,4.63,0,0,1,79.72,47L69.41,36.49l-8.3,8.45L71.46,55.49a4.65,4.65,0,0,1-3.26,7.93H53.6v12H66.89a4.66,4.66,0,0,1,4.29,2.84,4.52,4.52,0,0,1-1,5L59.66,93.61l8.45,8.3L78.66,91.55a4.66,4.66,0,0,1,7.94,3.26v14.61Z"/><path d="M103,22.42H82.19A2.59,2.59,0,0,0,79.6,25V37.93l-9.11-9.12A2.66,2.66,0,0,0,68.66,28a2.46,2.46,0,0,0-1.83.78L52,43.64a2.67,2.67,0,0,0-.79,1.83A2.47,2.47,0,0,0,52,47.3l9.1,9.12H48.21a2.66,2.66,0,0,0-2.61,2.67V79.82a2.59,2.59,0,0,0,2.59,2.6H61.08L52,91.54a2.67,2.67,0,0,0-.79,1.83A2.43,2.43,0,0,0,52,95.2L66.79,110a2.61,2.61,0,0,0,3.69,0l9.12-9.13v12.91a2.59,2.59,0,0,0,2.59,2.6H103a2.6,2.6,0,0,0,2.6-2.6V100.91l9.11,9.12a2.66,2.66,0,0,0,1.83.78,2.46,2.46,0,0,0,1.84-.78L133.2,95.2a2.63,2.63,0,0,0,.79-1.83,2.43,2.43,0,0,0-.79-1.83l-9.11-9.12H137a2.6,2.6,0,0,0,2.6-2.6V59a2.6,2.6,0,0,0-2.6-2.6H124.11l9.1-9.1a2.67,2.67,0,0,0,.79-1.83,2.43,2.43,0,0,0-.79-1.83L118.4,28.84a2.63,2.63,0,0,0-3.69,0L105.6,38V25A2.52,2.52,0,0,0,103,22.42Zm13.12,11.71,10.6,11.1L115.55,57A2.68,2.68,0,0,0,115,59.8a2.5,2.5,0,0,0,2.3,1.62h17.3v16H118a2.61,2.61,0,0,0-2.41,1.65,2.65,2.65,0,0,0,.57,2.88l11.74,12-11.11,11.31L105.05,93.26a2.6,2.6,0,0,0-4.45,1.87v16.29h-16V94.81a2.62,2.62,0,0,0-1.66-2.41,2.66,2.66,0,0,0-2.88.58L68.12,104.71,56.81,93.61l12-11.74A2.56,2.56,0,0,0,69.34,79a2.65,2.65,0,0,0-2.45-1.62H51.6v-16H68.2a2.61,2.61,0,0,0,2.41-1.65A2.65,2.65,0,0,0,70,56.89l-11.74-12L69.41,33.63,81.14,45.58a2.57,2.57,0,0,0,2.83.59,2.67,2.67,0,0,0,1.63-2.46V27.42h15V44a2.63,2.63,0,0,0,1.55,2.41,2.29,2.29,0,0,0,2.7-.58Z"/><path d="M92.89,89.68A20.18,20.18,0,1,1,113.06,69.5,20.21,20.21,0,0,1,92.89,89.68Zm0-31.16a11,11,0,1,0,11,11A11,11,0,0,0,92.89,58.52Z"/><path d="M74.71,69.5A18.18,18.18,0,1,0,92.89,51.32,18.2,18.2,0,0,0,74.71,69.5Zm31.16,0a13,13,0,1,1-13-13A13,13,0,0,1,105.87,69.5Z"/></g></g></svg>