<svg xmlns="http://www.w3.org/2000/svg" viewBox="0 0 48 48"><defs><style>.cls-1{fill:#abb2bf;}</style></defs><g id="Layer_2" data-name="Layer 2"><g id="Layer_1-2" data-name="Layer 1"><path class="cls-1" d="M3,30H4.22a1,1,0,0,1,.94.67A19.29,19.29,0,0,0,6,32.61a1,1,0,0,1-.19,1.13l-.86.87a3,3,0,0,0,0,4.24l4.24,4.24a3,3,0,0,0,4.25,0l.86-.86A1,1,0,0,1,15.39,42a19.46,19.46,0,0,0,1.95.8,1,1,0,0,1,.66.94V45a3,3,0,0,0,3,3h6a3,3,0,0,0,3-3V43.78a1,1,0,0,1,.67-.94,19.29,19.29,0,0,0,1.94-.8,1,1,0,0,1,1.14.19l.86.86a3,3,0,0,0,4.24,0l4.24-4.24a3,3,0,0,0,0-4.24l-.86-.87A1,1,0,0,1,42,32.61a19.29,19.29,0,0,0,.8-1.94,1,1,0,0,1,.94-.67H45a3,3,0,0,0,3-3V21a3,3,0,0,0-3-3H43.78a1,1,0,0,1-.94-.66,19.46,19.46,0,0,0-.8-1.95,1,1,0,0,1,.19-1.13l.86-.86a3,3,0,0,0,0-4.25L38.85,4.91a3,3,0,0,0-4.24,0l-.86.86a1,1,0,0,1-1.13.2,17.42,17.42,0,0,0-1.95-.81A1,1,0,0,1,30,4.22V3a3,3,0,0,0-3-3H21a3,3,0,0,0-3,3V4.22a1,1,0,0,1-.66.94,18.54,18.54,0,0,0-1.95.8,1,1,0,0,1-1.13-.19l-.86-.86a3,3,0,0,0-4.25,0L4.91,9.15a3,3,0,0,0,0,4.25l.86.86A1,1,0,0,1,6,15.39a19.46,19.46,0,0,0-.8,1.95,1,1,0,0,1-.94.66H3a3,3,0,0,0-3,3v6A3,3,0,0,0,3,30ZM2,21a1,1,0,0,1,1-1H4.22a3,3,0,0,0,2.83-2,17.85,17.85,0,0,1,.72-1.75,3,3,0,0,0-.58-3.41L6.32,12a1,1,0,0,1,0-1.41l4.25-4.25a1,1,0,0,1,1.41,0l.86.87a3,3,0,0,0,3.41.58A16.89,16.89,0,0,1,18,7.05a3,3,0,0,0,2-2.82V3a1,1,0,0,1,1-1h6a1,1,0,0,1,1,1V4.23a3,3,0,0,0,2,2.82,16.89,16.89,0,0,1,1.75.72,3,3,0,0,0,3.41-.58L36,6.32a1,1,0,0,1,1.42,0l4.24,4.25a1,1,0,0,1,0,1.41l-.86.86a3,3,0,0,0-.59,3.41A17.92,17.92,0,0,1,41,18a3,3,0,0,0,2.82,2H45a1,1,0,0,1,1,1v6a1,1,0,0,1-1,1H43.78A3,3,0,0,0,41,30a17,17,0,0,1-.73,1.75,3,3,0,0,0,.59,3.41l.86.86a1,1,0,0,1,0,1.42l-4.24,4.24a1,1,0,0,1-1.42,0l-.86-.86a3,3,0,0,0-3.41-.59A14.94,14.94,0,0,1,30,41a3,3,0,0,0-2,2.83V45a1,1,0,0,1-1,1H21a1,1,0,0,1-1-1V43.78A3,3,0,0,0,18,41a16.51,16.51,0,0,1-1.75-.72A3.07,3.07,0,0,0,15,39.94a3,3,0,0,0-2.12.88l-.86.86a1,1,0,0,1-1.41,0L6.32,37.44a1,1,0,0,1,0-1.42l.87-.86a3,3,0,0,0,.58-3.41A16.89,16.89,0,0,1,7.05,30a3,3,0,0,0-2.83-2H3a1,1,0,0,1-1-1Z"/><path class="cls-1" d="M24,36A12,12,0,1,0,12,24,12,12,0,0,0,24,36Zm0-22A10,10,0,1,1,14,24,10,10,0,0,1,24,14Z"/></g></g></svg>