<svg xmlns="http://www.w3.org/2000/svg" viewBox="0 0 129 140.67"><defs><style>.cls-1{fill:#1d1d1b;}</style></defs><g id="Layer_2" data-name="Layer 2"><g id="Layer_1-2" data-name="Layer 1"><path class="cls-1" d="M62.12.79,1.53,47.68A4,4,0,0,0,0,50.8v86a4.06,4.06,0,0,0,3.91,3.91H45.09A3.92,3.92,0,0,0,49,136.76V89.67H80v47.09a3.92,3.92,0,0,0,3.91,3.91h41.18a4.06,4.06,0,0,0,3.91-3.91v-86a4,4,0,0,0-1.53-3.12L66.88.79A4,4,0,0,0,62.12.79ZM64.5,8.61,121,52.51v80.16H88V85.58a3.92,3.92,0,0,0-3.91-3.91H44.91A3.92,3.92,0,0,0,41,85.58v47.09H8V52.51Z"/></g></g></svg>