<svg xmlns="http://www.w3.org/2000/svg" viewBox="0 0 149.1 149.1"><g id="Layer_2" data-name="Layer 2"><g id="Layer_1-2" data-name="Layer 1"><path d="M74.55,78.65A24.86,24.86,0,1,1,99.4,53.8,24.88,24.88,0,0,1,74.55,78.65Zm0-41.5A16.65,16.65,0,1,0,91.2,53.8,16.67,16.67,0,0,0,74.55,37.15Z"/><path d="M74.55,76.65A22.86,22.86,0,1,0,51.69,53.8,22.88,22.88,0,0,0,74.55,76.65Zm0-41.5A18.65,18.65,0,1,1,55.9,53.8,18.68,18.68,0,0,1,74.55,35.15Z"/><path d="M74.55,149.1A74.55,74.55,0,1,1,149.1,74.55,74.64,74.64,0,0,1,74.55,149.1ZM30.3,123.93a66.19,66.19,0,0,0,88.49,0c-.48-23.45-16.56-36.87-44.24-36.87S30.79,100.48,30.3,123.93ZM74.55,78.86c28.94,0,47.94,13.79,51.74,37.16a66.34,66.34,0,1,0-103.48,0C26.6,92.65,45.61,78.86,74.55,78.86Z"/><path d="M2,74.55A72.55,72.55,0,1,0,74.55,2,72.64,72.64,0,0,0,2,74.55Zm26.29,50.26c.1-25.26,16.94-39.75,46.26-39.75s46.16,14.49,46.25,39.75a68.21,68.21,0,0,1-92.51,0ZM74.55,6.21a68.29,68.29,0,0,1,50.28,114.56C123,95.7,104.49,80.86,74.55,80.86S26.12,95.7,24.26,120.77A68.3,68.3,0,0,1,74.55,6.21Z"/></g></g></svg>