<?xml version="1.0" encoding="utf-8"?>
<!-- Generator: Adobe Illustrator 26.0.1, SVG Export Plug-In . SVG Version: 6.00 Build 0)  -->
<svg version="1.1" id="Layer_1" xmlns="http://www.w3.org/2000/svg" xmlns:xlink="http://www.w3.org/1999/xlink" x="0px" y="0px"
	 viewBox="0 0 320 450" style="enable-background:new 0 0 320 450;" xml:space="preserve">
<style type="text/css">
	.st0{fill:#AC7CB5;}
</style>
<g>
	<g>
		<path class="st0" d="M148.82,26.67c25,0,46.33,3.62,64,10.88c17.66,7.25,32.29,17.34,43.88,30.25
			c11.58,12.92,20.62,28.12,27.12,45.62s11.08,36.5,13.75,57c2.66,20.5,4,41.75,4,63.75c0,42-2,77.12-6,105.38
			s-11.46,49.5-22.38,63.75c-10.92,14.25-26.62,21.38-47.12,21.38c-10,0-18.71-2.25-26.12-6.75c-7.42-4.5-13.5-10.29-18.25-17.38
			c-4.75-7.09-8.34-14.75-10.75-23c-2.42-8.25-3.79-16.04-4.12-23.38h-2c-3.34,8-7.92,15.67-13.75,23
			c-5.84,7.33-13.25,13.33-22.25,18c-9,4.66-20,7-33,7c-18.67,0-33.67-4.96-45-14.88c-11.34-9.91-19.59-23.54-24.75-40.88
			c-5.17-17.33-7.75-36.91-7.75-58.75c0-42.5,8.66-74.96,26-97.38c17.33-22.41,42.41-33.62,75.25-33.62
			c12.33,0,24.54,1.46,36.62,4.38c12.08,2.92,25.12,8.12,39.12,15.62v148.5c0,15.84,1.25,28.09,3.75,36.75
			c2.5,8.67,5.96,14.67,10.38,18c4.41,3.33,9.46,5,15.12,5c6.66,0,11.88-3.42,15.62-10.25s6.46-16.71,8.12-29.62
			c1.66-12.91,2.66-28.54,3-46.88c0.33-18.33,0.5-39,0.5-62c0-24.66-1.38-47.29-4.12-67.88c-2.75-20.58-7.84-38.38-15.25-53.38
			c-7.42-15-17.96-26.58-31.62-34.75c-13.67-8.16-31.42-12.25-53.25-12.25c-16.84,0-34.54,3.17-53.12,9.5
			c-18.59,6.34-38.12,18.5-58.62,36.5l-27-31.25c22.66-19.66,45.62-33.91,68.88-42.75C100.94,31.09,124.65,26.67,148.82,26.67z
			 M120.32,194.67c-19.17,0-32.25,7.46-39.25,22.38c-7,14.92-10.5,38.46-10.5,70.62c0,16,1,29.67,3,41c2,11.34,5.5,20,10.5,26
			s11.75,9,20.25,9c10.16,0,18.08-2.33,23.75-7c5.66-4.66,9.91-10.21,12.75-16.62c2.83-6.41,5-12.04,6.5-16.88v-122
			c-4.5-2.33-8.84-4-13-5C130.15,195.17,125.48,194.67,120.32,194.67z"/>
	</g>
</g>
</svg>
