<svg xmlns="http://www.w3.org/2000/svg" viewBox="0 0 63.84 55.3"><defs><style>.cls-1{fill:#abb2bf;}</style></defs><g id="Layer_2" data-name="Layer 2"><g id="Layer_1-2" data-name="Layer 1"><path class="cls-1" d="M49.94,31.6c.3.1.5.3.8.3a1.33,1.33,0,0,0,1.2-1.4,1.61,1.61,0,0,0-.3-.9,3.83,3.83,0,0,0-2.9-1v-.8c0-.3-.1-.5-.5-.5s-.5.2-.5.5v.8a4.1,4.1,0,0,0-4,4.1c0,1.3.6,2.2,2.2,3a7.59,7.59,0,0,0,1.8.6v2.8c-1.2,0-2.1-.8-2.8-.8a1.44,1.44,0,0,0-1.3,1.5c0,1.3,1.7,1.8,3,2a3.75,3.75,0,0,0,1,.1v.8c0,.3.1.5.5.5s.5-.2.5-.5v-.8a4.26,4.26,0,0,0,4.1-4.2,3.34,3.34,0,0,0-.3-1.5c-.6-1.4-2.2-2-3.7-2.5V31.1A6.12,6.12,0,0,1,49.94,31.6Zm10.5-6.3a15.35,15.35,0,0,1,3.4,9.8,15.66,15.66,0,0,1-15.7,15.7,16.18,16.18,0,0,1-8.7-2.6c-3.3,2.8-6.1,5.2-6.7,5.7l-1.6,1.4-1.5-1.4c-2.4-2-13.2-11.2-17.1-15C7.24,33.7-5.26,21.4,2.44,8.6A18,18,0,0,1,18.24,0a18.72,18.72,0,0,1,13,5.1,18.29,18.29,0,0,1,13-5.1A18.13,18.13,0,0,1,60,8.6C63.54,14.5,62.84,20.3,60.44,25.3Zm-4-3.5a12,12,0,0,0-.8-10.7A13.19,13.19,0,0,0,44.14,5a13,13,0,0,0-10.9,5.4l-2.1,3-2-3A13,13,0,0,0,18.24,5a13.19,13.19,0,0,0-11.5,6.1c-5,8.3,1.5,16.5,9.3,24.1,3.2,3.2,11.3,10.2,15.1,13.4,1.2-1,2.8-2.4,4.6-4a15.29,15.29,0,0,1-3.3-9.6,15.66,15.66,0,0,1,15.7-15.7A16.52,16.52,0,0,1,56.44,21.8Z"/><path class="cls-1" d="M48.74,39.1V36.6a1.22,1.22,0,0,1,1,1.3A1.12,1.12,0,0,1,48.74,39.1Z"/><path class="cls-1" d="M46.64,32.3a1.19,1.19,0,0,1,1-1.2v2.2A1,1,0,0,1,46.64,32.3Z"/></g></g></svg>